HIERARCHY
ROOT hip
{
  OFFSET 0 0 0
  CHANNELS 6 Xposition Yposition Zposition Zrotation Yrotation Xrotation
  JOINT abdomen
  {
    OFFSET 0 20.6881 -0.73152
    CHANNELS 3 Zrotation Xrotation Yrotation
    JOINT chest
    {
      OFFSET 0 11.7043 -0.48768
      CHANNELS 3 Zrotation Xrotation Yrotation
      JOINT neck
      {
        OFFSET 0 22.1894 -2.19456
        CHANNELS 3 Zrotation Xrotation Yrotation
        JOINT head
        {
          OFFSET -0.24384 7.07133 1.2192
          CHANNELS 3 Zrotation Xrotation Yrotation
          JOINT leftEye
          {
            OFFSET 4.14528 8.04674 8.04672
            CHANNELS 3 Zrotation Xrotation Yrotation
            End Site
            {
              OFFSET 1 0 0
            }
          }
          JOINT rightEye
          {
            OFFSET -3.6576 8.04674 8.04672
            CHANNELS 3 Zrotation Xrotation Yrotation
            End Site
            {
              OFFSET 1 0 0
            }
          }
        }
      }
      JOINT rCollar
      {
        OFFSET -2.68224 19.2634 -4.8768
        CHANNELS 3 Zrotation Xrotation Yrotation
        JOINT rShldr
        {
          OFFSET -8.77824 -1.95073 1.46304
          CHANNELS 3 Zrotation Xrotation Yrotation
          JOINT rForeArm
          {
            OFFSET -28.1742 -1.7115 0.48768
            CHANNELS 3 Zrotation Xrotation Yrotation
            JOINT rHand
            {
              OFFSET -22.5879 0.773209 7.07136
              CHANNELS 3 Zrotation Xrotation Yrotation
              JOINT rThumb1
              {
                OFFSET -1.2192 -0.487915 3.41376
                CHANNELS 3 Zrotation Xrotation Yrotation
                JOINT rThumb2
                {
                  OFFSET -3.37035 -0.52449 3.41376
                  CHANNELS 3 Zrotation Xrotation Yrotation
                  End Site
                  {
                    OFFSET -1.78271 -1.18214 1.43049
                  }
                }
              }
              JOINT rIndex1
              {
                OFFSET -7.75947 0.938293 5.60832
                CHANNELS 3 Zrotation Xrotation Yrotation
                JOINT rIndex2
                {
                  OFFSET -2.54057 -0.884171 1.56538
                  CHANNELS 3 Zrotation Xrotation Yrotation
                  End Site
                  {
                    OFFSET -1.62519 -0.234802 1.16502
                  }
                }
              }
              JOINT rMid1
              {
                OFFSET -8.24714 1.18213 3.41376
                CHANNELS 3 Zrotation Xrotation Yrotation
                JOINT rMid2
                {
                  OFFSET -3.10165 -0.590103 1.0647
                  CHANNELS 3 Zrotation Xrotation Yrotation
                  End Site
                  {
                    OFFSET -2.48547 -0.328903 0.83742
                  }
                }
              }
              JOINT rRing1
              {
                OFFSET -8.82822 0.546677 1.51678
                CHANNELS 3 Zrotation Xrotation Yrotation
                JOINT rRing2
                {
                  OFFSET -2.60934 -0.819778 -0.0198488
                  CHANNELS 3 Zrotation Xrotation Yrotation
                  End Site
                  {
                    OFFSET -2.33842 -0.294052 0.168128
                  }
                }
              }
              JOINT rPinky1
              {
                OFFSET -8.27202 -0.0477905 -0.4584
                CHANNELS 3 Zrotation Xrotation Yrotation
                JOINT rPinky2
                {
                  OFFSET -1.82734 -0.647385 -0.700984
                  CHANNELS 3 Zrotation Xrotation Yrotation
                  End Site
                  {
                    OFFSET -1.69225 -0.51767 -0.607171
                  }
                }
              }
            }
          }
        }
      }
      JOINT lCollar
      {
        OFFSET 2.68224 19.2634 -4.8768
        CHANNELS 3 Zrotation Xrotation Yrotation
        JOINT lShldr
        {
          OFFSET 8.77824 -1.95073 1.46304
          CHANNELS 3 Zrotation Xrotation Yrotation
          JOINT lForeArm
          {
            OFFSET 28.1742 -1.7115 0.48768
            CHANNELS 3 Zrotation Xrotation Yrotation
            JOINT lHand
            {
              OFFSET 22.5879 0.773209 7.07136
              CHANNELS 3 Zrotation Xrotation Yrotation
              JOINT lThumb1
              {
                OFFSET 1.2192 -0.487915 3.41376
                CHANNELS 3 Zrotation Xrotation Yrotation
                JOINT lThumb2
                {
                  OFFSET 3.37035 -0.52449 3.41376
                  CHANNELS 3 Zrotation Xrotation Yrotation
                  End Site
                  {
                    OFFSET 1.78271 -1.18214 1.43049
                  }
                }
              }
              JOINT lIndex1
              {
                OFFSET 7.75947 0.938293 5.60832
                CHANNELS 3 Zrotation Xrotation Yrotation
                JOINT lIndex2
                {
                  OFFSET 2.54057 -0.884171 1.56538
                  CHANNELS 3 Zrotation Xrotation Yrotation
                  End Site
                  {
                    OFFSET 1.62519 -0.234802 1.16502
                  }
                }
              }
              JOINT lMid1
              {
                OFFSET 8.24714 1.18213 3.41376
                CHANNELS 3 Zrotation Xrotation Yrotation
                JOINT lMid2
                {
                  OFFSET 3.10165 -0.590103 1.0647
                  CHANNELS 3 Zrotation Xrotation Yrotation
                  End Site
                  {
                    OFFSET 2.48547 -0.328903 0.83742
                  }
                }
              }
              JOINT lRing1
              {
                OFFSET 8.82822 0.546677 1.51678
                CHANNELS 3 Zrotation Xrotation Yrotation
                JOINT lRing2
                {
                  OFFSET 2.60934 -0.819778 -0.0198488
                  CHANNELS 3 Zrotation Xrotation Yrotation
                  End Site
                  {
                    OFFSET 2.33842 -0.294052 0.168128
                  }
                }
              }
              JOINT lPinky1
              {
                OFFSET 8.27202 -0.0477905 -0.4584
                CHANNELS 3 Zrotation Xrotation Yrotation
                JOINT lPinky2
                {
                  OFFSET 1.82734 -0.647385 -0.700984
                  CHANNELS 3 Zrotation Xrotation Yrotation
                  End Site
                  {
                    OFFSET 1.69225 -0.51767 -0.607171
                  }
                }
              }
            }
          }
        }
      }
    }
  }
  JOINT rButtock
  {
    OFFSET -8.77824 4.35084 1.2192
    CHANNELS 3 Zrotation Xrotation Yrotation
    JOINT rThigh
    {
      OFFSET 0 -1.70687 -2.19456
      CHANNELS 3 Zrotation Xrotation Yrotation
      JOINT rShin
      {
        OFFSET 0 -36.8199 0.73152
        CHANNELS 3 Zrotation Xrotation Yrotation
        JOINT rFoot
        {
          OFFSET 0.73152 -45.1104 -5.12064
          CHANNELS 3 Zrotation Xrotation Yrotation
          End Site
          {
            OFFSET -1.1221 -3.69964 12.103
          }
        }
      }
    }
  }
  JOINT lButtock
  {
    OFFSET 8.77824 4.35084 1.2192
    CHANNELS 3 Zrotation Xrotation Yrotation
    JOINT lThigh
    {
      OFFSET 0 -1.70687 -2.19456
      CHANNELS 3 Zrotation Xrotation Yrotation
      JOINT lShin
      {
        OFFSET 0 -36.8199 0.73152
        CHANNELS 3 Zrotation Xrotation Yrotation
        JOINT lFoot
        {
          OFFSET -0.73152 -45.1104 -5.12064
          CHANNELS 3 Zrotation Xrotation Yrotation
          End Site
          {
            OFFSET 1.1221 -3.69964 12.103
          }
        }
      }
    }
  }
}
MOTION
Frames:	8
Frame Time:	0.03333
0.0 0.0 0.0 0.0 0.0 0.0 0.0 0.0 0.0 0.0 0.0 0.0 0.0 0.0 0.0 0.0 0.0 0.0 0.0 0.0 0.0 0.0 0.0 0.0 0.0 0.0 0.0 0.0 0.0 0.0 0.0 0.0 0.0 0.0 0.0 0.0 0.0 0.0 0.0 0.0 0.0 0.0 0.0 0.0 0.0 0.0 0.0 0.0 0.0 0.0 0.0 0.0 0.0 0.0 0.0 0.0 0.0 0.0 0.0 0.0 0.0 0.0 0.0 0.0 0.0 0.0 0.0 0.0 0.0 0.0 0.0 0.0 0.0 0.0 0.0 0.0 0.0 0.0 0.0 0.0 0.0 0.0 0.0 0.0 0.0 0.0 0.0 0.0 0.0 0.0 0.0 0.0 0.0 0.0 0.0 0.0 0.0 0.0 0.0 0.0 0.0 0.0 0.0 0.0 0.0 0.0 0.0 0.0 0.0 0.0 0.0 0.0 0.0 0.0 0.0 0.0 0.0 0.0 0.0 0.0 0.0 0.0 0.0 0.0 0.0 0.0 0.0 0.0 0.0 0.0 0.0 0.0
0.0034999999999999996 62.5068 -0.10660000000000001 0.435267 -5.814932 -0.524677 1.837344 0.100473 -100.702739 -8.415361 4.044005 53.797983 -6.570296 -19.666771 -13.870409 43.457886 -11.658985 61.094109 126.749008 16.221091 -31.737467 119.558 -15.145883 25.713344 -92.047483 -47.863091 161.321544 -167.551385 12.713976 169.13415 -1.456311 70.58813 152.227436 -30.390038 46.017779 -46.691007 -5.544389 -10.649396 34.063256 141.951335 39.453982 -65.062958 -71.135894 4.424646 173.393932 25.527072 42.309128 149.110023 108.630343 -39.00698 -89.235148 -90.788696 63.247342 -3.029638 87.354828 17.508838 -79.79029 -152.291666 -1.706223 176.39971 117.716477 19.636199 -59.294 11.975883 0.725218 -0.378329 -30.615473 -80.194069 62.573795 159.647412 -27.475667 -175.980922 -1.417017 7.119118 -170.599825 -167.480611 -14.790554 -108.165061 -175.865452 -3.759818 -79.859004 135.345951 -43.411748 -104.628806 -143.823406 -43.098472 -153.962793 82.928417 -18.954793 125.192163 159.852085 8.707941 -82.986354 -33.584897 10.931272 -77.579677 -19.690916 21.703092 124.170422 116.213278 -16.043226 -154.690279 8.448551 12.889539 95.482502 87.748659 -47.861064 73.545707 49.01047 7.805982 87.363751 -12.957804 50.417828 9.891678 8.718646 -1.706734 98.328021 -58.686304 -30.417347 119.710463 1.879397 52.199381 -180.0 2.226277 50.570528 164.135986 5.75163 -0.236804 82.18398 25.420845 -64.502385 -154.366238
-0.2547 62.665000000000006 1.002 -175.819599 7.066441 -174.434375 -1.993878 10.768023 -0.0 2.892192 -8.61881 10.976843 -13.401305 27.940823 -96.465488 43.673496 18.677651 77.612092 26.141277 1.522392 6.55055 -2.186717 -0.54434 27.954022 -144.806319 17.789735 154.618687 129.796612 -40.787561 147.966607 75.271201 -22.879629 86.645112 -92.930853 80.071928 72.732443 -8.703569 2.138057 -7.94916 13.056173 -23.094729 2.669148 -5.936483 -29.481422 -9.40648 123.882798 -59.781902 59.408395 -163.984376 9.57614 149.215399 -7.172839 37.63756 9.151245 -122.058773 33.111177 147.658704 -129.745606 3.142779 -178.375735 -155.165495 0.96843 -139.279209 -65.680359 -34.766772 -46.785368 -7.670327 -32.87111 5.643591 -66.759423 19.006158 18.069438 -91.007155 -35.499187 -60.418682 115.019533 67.475976 -94.944376 -32.337129 -25.931698 4.607911 95.759513 33.377446 -49.078274 -1.465315 -19.928333 -4.33973 134.097588 16.391116 -165.530744 27.896024 53.298477 -30.192338 145.081285 22.617393 -147.432466 -5.674996 0.801469 7.330798 159.513707 31.055668 -156.243493 177.205395 65.679716 153.974615 159.041831 -44.304642 134.166866 -18.953961 4.86468 -0.0 15.96203 -28.953865 -95.800355 -60.518713 1.189542 -82.111272 90.047709 -14.919368 -178.078523 -115.108184 71.053257 -40.754766 166.770007 27.328862 180.0 49.958842 -44.856127 147.508173 143.131293 -38.674678 -120.368578
0.0063999999999999994 67.13080000000001 2.7220999999999997 -169.747138 8.496566 -177.110551 2.57196 14.627024 -0.54614 3.775849 -7.907101 19.445134 -7.414984 21.972337 -81.29213 32.144308 2.182491 64.935159 18.276824 -4.430904 -27.044942 4.578717 0.04847 1.212378 -5.829053 34.998344 12.21245 -13.228897 56.524195 70.775462 29.410789 83.774947 -113.196066 167.627127 -19.459551 143.549668 9.355889 1.828534 5.695412 -17.236787 -18.621034 -5.081463 -1.415221 -23.196721 -19.475782 -172.209135 -35.773096 76.195556 -11.934474 13.063281 0.314022 -159.438292 -23.113018 146.953294 -130.897934 35.006699 150.981759 29.465079 11.695871 -1.145669 -137.180972 74.022656 155.429716 -14.375054 60.987776 73.347598 30.385088 46.917175 -35.284601 153.787285 -30.635524 -113.651755 159.17982 62.75125 159.80481 3.926195 6.329211 -1.475758 74.388004 44.179748 -26.022983 172.326827 -55.788003 -43.605411 11.184723 18.749637 -6.940536 17.076455 66.765696 -16.088212 177.058561 -47.350046 -146.413378 155.8213 8.112426 -144.811751 0.4637 -3.620183 0.420926 -151.533287 76.948686 143.073221 -10.138568 31.0399 -7.408498 13.399937 7.049946 6.633408 -8.619935 -7.917643 9.931926 11.130221 -11.140081 45.518896 52.091567 31.657645 -171.286045 99.341599 50.560133 1.619273 -29.238127 10.585288 -7.378943 76.556495 -57.144414 78.645996 52.689466 48.524855 18.469282 13.435358 -45.819142 -84.472263
1.0854000000000001 65.8708 3.0523000000000002 -167.856252 10.630154 177.998658 7.820249 20.430096 -50.655955 4.854848 -6.768644 67.901649 -11.057928 20.651729 -65.749768 32.067562 -4.644975 45.833449 55.161784 -7.540539 -14.380348 -0.220305 -2.4e-05 0.012426 -58.47516 -85.976171 -83.072494 114.270414 51.230002 -101.308056 174.890747 2.795728 90.777997 170.365685 -21.62724 147.690706 9.959181 1.767723 5.459017 -14.041055 -70.498003 -47.480184 -1.299814 -53.647035 -26.95368 9.557488 59.757477 24.661848 -165.003684 -57.810148 155.79566 96.214446 -73.77936 55.553652 1.77194 -3.483686 11.93379 92.235278 78.347305 -84.839357 -158.342181 29.419017 -167.939438 -141.354641 -10.420371 179.745005 0.793979 0.083641 -7.438448 -74.228896 7.965221 1.793882 0.957141 7.436042 -44.844947 2.341049 9.217193 -2.55199 4.334767 -8.933631 10.683475 106.677035 -1.725821 -130.408138 158.980771 -47.04236 -131.771356 4.666551 -24.71991 14.217317 154.003203 10.632168 -136.523176 160.529292 -28.988424 -136.728067 148.819627 28.312855 179.843379 -15.913432 0.128537 2.435218 138.310129 -12.44194 131.532262 -14.258865 -50.49542 -15.22385 44.766936 35.831111 60.704059 -64.078071 10.915257 114.410349 5.978659 -67.564408 -51.497196 -78.809597 -8.682178 -153.781142 -86.658466 14.223828 -27.418864 120.646735 -30.13539 30.27465 25.256033 68.942298 123.456818 170.734177 40.712472 144.711571
2.1926 64.0933 2.4654 -167.991291 11.679275 174.775314 6.190124 23.513693 60.165344 -8.226871 -2.931929 -45.462277 0.787701 34.123111 165.580454 -9.535238 44.251953 176.078103 104.941442 18.01634 -23.322263 -20.642816 -3.268159 17.80557 -118.726691 60.572341 125.543894 -24.487632 0.268747 57.530505 -50.830462 11.733852 -55.3642 81.682978 -69.912766 72.186575 0.463253 4.271878 -7.076249 -0.347726 -14.414345 -21.894645 87.291972 -78.207531 42.359334 -3.978785 58.767872 1.36985 -17.450124 61.747865 11.877047 152.025737 -70.367411 138.071006 -122.194099 48.521435 133.535983 -139.535248 -8.64709 157.06583 -139.794933 -40.88477 -134.944779 -36.983233 -59.314906 -4.489045 -13.037821 -69.996953 4.784909 155.825663 0.685847 124.875239 95.737715 -74.519665 55.445004 -0.646642 -5.865055 -1.022184 172.383773 2.791486 -97.55203 4.93712 -46.432507 -18.832418 144.917615 -5.73446 -118.82996 -177.396762 -6.701172 -96.049763 34.481658 51.560335 -31.219817 -12.912755 0.451784 18.412407 71.207175 -66.61798 87.663304 -18.607579 1.328379 -7.87236 155.889789 12.476808 145.570688 149.403311 36.315946 151.444352 -4.639632 -8.130899 5.270818 8.120693 -4.495396 -108.198412 -56.155588 -18.969074 63.349512 -90.600164 -19.162971 6.214705 28.8488 36.005067 58.639432 -99.756181 -32.958778 74.135105 49.823237 -47.761523 126.613453 -29.164949 85.269605 93.947372
3.2649 62.3711 1.6309 -167.653448 12.798635 172.819621 10.159966 25.725375 -4.063607 -4.360604 -9.952033 18.290957 -6.721622 17.226713 -22.734997 16.00585 -22.710085 8.844658 155.014149 6.26474 -27.747788 -51.447626 -17.068937 34.601839 -151.357112 -28.047345 172.430059 -33.841981 19.847579 -17.904843 23.221088 -30.214829 -77.34253 168.337611 -16.089146 150.331525 -72.445266 56.623273 39.17606 89.688817 -41.953179 24.4979 -40.278808 41.281441 37.787298 -73.064925 51.854482 67.4567 -155.557501 25.031674 159.033078 -97.797758 82.981291 90.956683 -115.082245 58.934893 118.197452 56.08345 -28.452754 33.249507 -126.428205 45.512493 -179.357411 50.753496 -66.934169 2.246272 142.763797 29.420922 -148.077836 100.990436 26.304777 -68.909651 -1.956705 -48.512689 78.933896 -175.065131 -12.391261 -145.083053 84.417328 44.766258 -35.589286 22.729685 -10.396929 -29.832004 -168.36502 -68.047581 -102.961306 88.42274 46.889738 -50.665316 3.426213 26.325249 -2.938503 87.650182 78.843856 -71.896722 4.969255 13.700813 -2.800491 36.590115 78.326229 -37.216343 42.420115 -38.095104 17.679444 5.201261 -41.348826 29.472635 -175.617069 88.227009 -0.0 146.488889 80.926311 -180.0 39.332467 -49.685373 -14.197153 -112.638375 -15.912092 -179.161307 24.680034 20.285813 69.760683 -78.011637 -25.427437 -164.48365 -62.626621 2.113885 -98.518727 -54.565572 7.075455 160.073295
4.1267 61.478100000000005 1.9298 -166.858182 14.177666 175.77977 7.66958 21.212711 51.141996 -7.691519 -3.321144 -31.311649 18.08189 27.323593 99.942734 -31.448213 22.711656 -114.791391 158.504195 3.84505 -20.056761 -75.272333 -16.683934 21.533361 -148.661246 -5.051606 176.839196 -42.267777 22.465627 -4.488182 31.732166 -14.02097 -78.660764 169.901569 -4.746301 152.329137 4.498601 5.853549 -19.735615 15.370353 -20.462452 -22.111729 -156.187286 -49.845304 126.448868 -7.020145 -15.447896 12.799084 -14.217598 76.486795 10.343961 -26.432314 60.415627 -8.768661 -54.275899 -78.124006 -52.749409 177.698281 1.076856 -147.845806 -112.846726 36.963452 171.717854 77.609159 -38.510028 23.421894 1.634522 -0.620425 -6.363864 -77.626402 6.822206 10.93471 7.60496 10.528919 -44.486241 3.821465 -1.867058 3.916676 9.168641 -1.457588 3.105848 -78.31353 -61.456227 -14.547436 4.241604 16.143837 -10.143585 -14.940231 6.444509 11.659809 -8.733768 1.525874 -6.742302 91.904337 -86.945429 109.384953 86.966614 -73.802534 95.919087 65.461213 -79.643788 96.007983 23.031688 27.641015 -6.973502 -34.226531 -48.185278 -25.945557 176.885026 72.226743 -0.0 -167.687905 60.87618 149.827346 28.364981 -62.6254 -15.063763 -103.57395 -0.877675 -164.67165 -25.148985 84.781824 -180.0 -153.817086 21.356881 -9.63879 47.392873 45.935357 160.326221 -60.426795 44.117685 141.163419
